<svg xmlns="http://www.w3.org/2000/svg" width="600" height="400" viewBox="0 0 600 400"><rect width="100%" height="100%" fill="#000000"/><path fill="#FFF" d="m267.95 151.2-6.5-10.3q3.4-3 7.45-5.7t8.75-4.7 10.2-3.15 11.9-1.15q8.7 0 15.85 2.4t12.25 6.85 7.9 10.75 2.8 14.1q0 7.6-2.2 13.15t-5.5 9.65-7.25 7.1-7.45 5.65-6.05 5.2-3.05 5.75l-2.3 14.6h-16.9l-1.7-16.3q-.6-4.7 1.35-8.25t5.2-6.5 7.25-5.7 7.5-6 5.85-7.3 2.35-9.65q0-3.6-1.35-6.45t-3.75-4.9-5.75-3.15-7.25-1.1q-5.7 0-9.65 1.25t-6.7 2.8-4.65 2.8-3.4 1.25q-3.6 0-5.2-3m12.4 107.6q0-3.1 1.15-5.9t3.15-4.8 4.8-3.2 6-1.2 5.95 1.2 4.8 3.2 3.25 4.8 1.2 5.9q0 3.2-1.2 5.95t-3.25 4.75-4.8 3.15-5.95 1.15-6-1.15-4.8-3.15-3.15-4.75-1.15-5.95"/></svg>