<svg xmlns="http://www.w3.org/2000/svg" width="1920" height="1200" viewBox="0 0 1920 1200"><rect width="100%" height="100%" fill="#000000"/><path fill="#808080" d="m863.85 453.6-19.5-30.9q10.2-9 22.35-17.1t26.25-14.1 30.6-9.45 35.7-3.45q26.1 0 47.55 7.2t36.75 20.55 23.7 32.25 8.4 42.3q0 22.8-6.6 39.45t-16.5 28.95-21.75 21.3-22.35 16.95-18.15 15.6-9.15 17.25l-6.9 43.8h-50.7l-5.1-48.9q-1.8-14.1 4.05-24.75t15.6-19.5 21.75-17.1 22.5-18 17.55-21.9 7.05-28.95q0-10.8-4.05-19.35t-11.25-14.7-17.25-9.45-21.75-3.3q-17.1 0-28.95 3.75t-20.1 8.4-13.95 8.4-10.2 3.75q-10.8 0-15.6-9m37.2 322.8q0-9.3 3.45-17.7t9.45-14.4 14.4-9.6 18-3.6 17.85 3.6 14.4 9.6 9.75 14.4 3.6 17.7q0 9.6-3.6 17.85t-9.75 14.25-14.4 9.45-17.85 3.45-18-3.45-14.4-9.45-9.45-14.25-3.45-17.85"/></svg>